<svg xmlns="http://www.w3.org/2000/svg" width="601.062" height="651.937" viewBox="0 0 601.062 651.937">
  <defs>
    <style>
      .cls-1 {
        fill: #ffe90e;
        fill-rule: evenodd;
      }
    </style>
  </defs>
  <path id="KP.svg" class="cls-1" d="M1454.4,982.117H880.533a13.65,13.65,0,0,1-13.592-13.709V900.221a13.714,13.714,0,0,1,8.111-12.545l49.838-22.147C929.462,816.88,970.2,778.7,1019.6,778.7h98.03V645.761c-9.09-22.906-73.41-186.592-73.41-228.132,0-48.215,38.89-87.441,86.7-87.441h73.09c47.81,0,86.7,39.226,86.7,87.441,0,40.727-62.3,198.745-73.41,226.618V778.7h98.03c49.4,0,90.14,38.182,94.71,86.831l49.84,22.147a13.712,13.712,0,0,1,8.11,12.545v68.187A13.653,13.653,0,0,1,1454.4,982.117ZM1263.52,417.629c0-33.1-26.69-60.023-59.51-60.023h-73.09c-32.82,0-59.51,26.926-59.51,60.023,0,26.858,39.69,137.194,68.41,210.245h54.71C1223.48,554.826,1263.52,444.468,1263.52,417.629ZM1144.81,655.292V778.7h45.31V655.292h-45.31ZM1440.8,909.161l-49.41-21.956a13.731,13.731,0,0,1-8.11-12.546c0-37.8-30.48-68.544-67.95-68.544H1019.6c-37.468,0-67.954,30.748-67.954,68.544a13.719,13.719,0,0,1-8.111,12.546l-49.411,21.956V954.7H1440.8V909.161Zm-390.34-27.575h234.01a13.71,13.71,0,0,1,0,27.418H1050.46A13.71,13.71,0,0,1,1050.46,881.586Zm133.07-375.137H1151.4a13.709,13.709,0,0,1,0-27.417h32.13A13.709,13.709,0,0,1,1183.53,506.449Zm-63.84-86.821a13.647,13.647,0,0,1,13.59-13.709h68.37a13.709,13.709,0,0,1,0,27.417h-68.37A13.646,13.646,0,0,1,1119.69,419.628Z" transform="translate(-866.938 -330.188)"/>
</svg>

