<svg xmlns="http://www.w3.org/2000/svg" width="375" height="320" viewBox="0 0 375 320">
  <defs>
    <style>
      .cls-1 {
        fill: #101118;
        fill-rule: evenodd;
      }
    </style>
  </defs>
  <path id="Ic4.svg" class="cls-1" d="M849,725.967c0,30.415-60.379,46.829-117.188,46.829a303.075,303.075,0,0,1-34.225-1.894,7.806,7.806,0,1,1,1.77-15.511,286.823,286.823,0,0,0,32.455,1.8c62,0,101.563-18.491,101.563-31.219v-7.8a9.4,9.4,0,0,0-2.222-5.512c-22.114,13.842-61.515,21.122-99.341,21.122-4.631,0-9.208-.1-13.694-0.294a7.805,7.805,0,1,1,.687-15.595c4.257,0.187,8.605.279,13.007,0.279,62,0,101.563-18.491,101.563-31.22v-7.805a9.4,9.4,0,0,0-2.222-5.511c-22.114,13.842-61.515,21.121-99.341,21.121-2.914,0-5.813-.038-8.675-0.118a7.813,7.813,0,0,1-7.6-8.014,7.687,7.687,0,0,1,8.026-7.588q4.086,0.108,8.247.11c62,0,101.563-18.491,101.563-31.219v-7.8a9.4,9.4,0,0,0-2.222-5.511c-22.114,13.841-61.515,21.121-99.341,21.121-5.1,0-10.116-.123-15.029-0.355a7.809,7.809,0,0,1-7.432-8.17,7.956,7.956,0,0,1,8.179-7.424c4.669,0.224,9.446.339,14.282,0.339,62,0,101.563-18.491,101.563-31.219v-7.8a9.411,9.411,0,0,0-2.231-5.522c-22.115,13.838-61.511,21.116-99.332,21.116a302.182,302.182,0,0,1-35.728-2.073,7.8,7.8,0,1,1,1.861-15.5,286.729,286.729,0,0,0,33.867,1.959c62,0,101.563-18.49,101.563-31.219V555.089c-21.621,14.783-62.438,22.57-101.563,22.57-39.151,0-79.995-7.8-101.605-22.6a7.813,7.813,0,0,1-15.582-.815V530.829C614.625,500.414,675,484,731.812,484S849,500.414,849,530.829v39.025a24.408,24.408,0,0,1-5.936,15.6c4.765,5.959,5.936,11.567,5.936,15.633v7.8a24.4,24.4,0,0,1-5.93,15.594c4.76,5.956,5.93,11.561,5.93,15.625v7.8a24.407,24.407,0,0,1-5.93,15.6c4.76,5.955,5.93,11.56,5.93,15.624v7.805a24.405,24.405,0,0,1-5.93,15.6c4.76,5.956,5.93,11.561,5.93,15.625v7.8ZM731.812,499.61c-62,0-101.562,18.49-101.562,31.219s39.566,31.22,101.562,31.22,101.563-18.491,101.563-31.22S793.809,499.61,731.812,499.61ZM708.375,686.927C708.375,751.481,655.809,804,591.187,804S474,751.481,474,686.927s52.566-117.073,117.187-117.073S708.375,622.373,708.375,686.927ZM591.187,585.463A101.464,101.464,0,1,0,692.75,686.927,101.627,101.627,0,0,0,591.187,585.463Zm21.67,112.156h-38.1v11.238h38.1V724.1h-38.1v26.1H559.524V724.1H544.286V708.857h15.238V697.619H544.286V682.381h15.238V626.428h53.333a30.511,30.511,0,0,1,30.476,30.477v10.238A30.511,30.511,0,0,1,612.857,697.619ZM628.1,656.905a15.255,15.255,0,0,0-15.238-15.238h-38.1v40.714h38.1A15.256,15.256,0,0,0,628.1,667.143V656.905Z" transform="translate(-474 -484)"/>
</svg>

