<svg xmlns="http://www.w3.org/2000/svg" width="652.062" height="652.063" viewBox="0 0 652.062 652.063">
  <defs>
    <style>
      .cls-1 {
        fill: #ffe90e;
        fill-rule: evenodd;
      }
    </style>
  </defs>
  <path id="Kuzov.svg" class="cls-1" d="M1420.43,982.088H856.679a14.745,14.745,0,0,1-14.745-14.744V602.488a13.551,13.551,0,0,1,3.041-8.967l197.405-257.7a14.765,14.765,0,0,1,11.71-5.779h310.27a70.524,70.524,0,0,1,70.44,70.448V589.162a73.672,73.672,0,0,1,59.18,72.134V908.533A73.633,73.633,0,0,1,1420.43,982.088Zm-15.12-581.6a41,41,0,0,0-40.95-40.958H1061.37L886.548,587.743H1405.31V400.485ZM1464.49,661.3a44.108,44.108,0,0,0-44.06-44.063H871.424V860.852H1046.41a14.745,14.745,0,1,1,0,29.49H871.424V952.6H1420.43a44.11,44.11,0,0,0,44.06-44.066V661.3Zm-100.86,68.845a14.743,14.743,0,0,1-14.74-14.745v-13.58h-82.62V715.4a14.745,14.745,0,1,1-29.49,0V687.071a14.743,14.743,0,0,1,14.74-14.745h112.11a14.745,14.745,0,0,1,14.75,14.745V715.4A14.745,14.745,0,0,1,1363.63,730.141Zm-210.92-303.7a14.744,14.744,0,0,1,23.41,17.932l-58.56,76.449a14.744,14.744,0,0,1-23.41-17.931Zm110.04,0a14.744,14.744,0,0,1,23.41,17.932l-58.56,76.449a14.744,14.744,0,0,1-23.41-17.931Z" transform="translate(-841.938 -330.031)"/>
</svg>

