<svg xmlns="http://www.w3.org/2000/svg" width="738.224" height="652.22" viewBox="0 0 738.224 652.22">
  <defs>
    <style>
      .cls-1 {
        fill: #ffe90e;
        fill-rule: evenodd;
      }
    </style>
  </defs>
  <path id="Akkum.svg" class="cls-1" d="M1424.83,1715.24H831.194A72.338,72.338,0,0,1,758.915,1643V1165.55a16.234,16.234,0,0,1,16.234-16.23h29.8v-70.05a16.228,16.228,0,0,1,16.234-16.23H893.33a16.228,16.228,0,0,1,16.233,16.23v70.05h37.473l25.153-75.2a16.227,16.227,0,0,1,15.394-11.08H1268.44a16.234,16.234,0,0,1,15.4,11.08l25.15,75.2h37.48v-70.05a16.222,16.222,0,0,1,16.23-16.23h72.15a16.228,16.228,0,0,1,16.23,16.23v70.05h29.8a16.235,16.235,0,0,1,16.23,16.23V1643A72.335,72.335,0,0,1,1424.83,1715.24ZM877.1,1095.49H837.415v53.83H877.1v-53.83Zm379.653,0H999.272l-18,53.83H1274.76Zm161.86,0h-39.68v53.83h39.68v-53.83Zm46.03,86.28H791.382v50.48H1464.64v-50.48Zm0,165.85H1362.7a16.225,16.225,0,1,1,0-32.45h101.94V1264.7H791.382v50.47H893.33a16.225,16.225,0,1,1,0,32.45H791.382V1643a39.847,39.847,0,0,0,39.812,39.79H1424.83a39.846,39.846,0,0,0,39.81-39.79V1347.62ZM1128.01,1637.6c-90.39,0-163.934-73.5-163.934-163.85s73.544-163.86,163.934-163.86,163.94,73.5,163.94,163.86S1218.41,1637.6,1128.01,1637.6Zm0-295.26c-72.49,0-131.468,58.95-131.468,131.41s58.978,131.4,131.468,131.4,131.47-58.95,131.47-131.4S1200.51,1342.34,1128.01,1342.34Zm14.9,216.84a16.23,16.23,0,0,1-29.79-12.89l24.38-56.32h-43.69a16.228,16.228,0,0,1-14.89-22.67l34.2-78.99a16.23,16.23,0,1,1,29.79,12.89l-24.38,56.32h43.68a16.228,16.228,0,0,1,14.9,22.67Z" transform="translate(-758.906 -1063.03)"/>
</svg>

