<svg xmlns="http://www.w3.org/2000/svg" width="622.03" height="652.031" viewBox="0 0 622.03 652.031">
  <defs>
    <style>
      .cls-1 {
        fill: #ffe90e;
        fill-rule: evenodd;
      }
    </style>
  </defs>
  <path id="Filtr.svg" class="cls-1" d="M1211.02,982.131c-150.78,0-311.014-37.886-311.014-108.1V462.851c0-54.541,91.987-81.531,146.814-92.763a14.746,14.746,0,1,1,5.97,28.882c-85.078,17.432-123.163,44.644-123.163,63.881,0,32.824,107.053,78.61,281.393,78.61s281.38-45.786,281.38-78.61c0-19.237-38.08-46.449-123.16-63.881a14.746,14.746,0,1,1,5.97-28.882c54.83,11.232,146.81,38.219,146.81,92.763V874.032C1522.02,944.245,1361.79,982.131,1211.02,982.131ZM1492.4,511.023c-53.21,39.2-169.88,59.928-281.38,59.928s-228.183-20.729-281.393-59.928V784.718c0,32.824,107.053,78.608,281.393,78.608s281.38-45.784,281.38-78.608V511.023Zm0,321.865c-53.21,39.2-169.88,59.927-281.38,59.927s-228.183-20.729-281.393-59.927v41.144c0,32.823,107.053,78.61,281.393,78.61s281.38-45.787,281.38-78.61V832.888Zm-69.81-33.626a14.777,14.777,0,0,1-14.81-14.745V593.711a14.81,14.81,0,0,1,29.62,0V784.517A14.777,14.777,0,0,1,1422.59,799.262Zm-84.63,19.032a14.777,14.777,0,0,1-14.81-14.745v-190.8a14.81,14.81,0,0,1,29.62,0v190.8A14.777,14.777,0,0,1,1337.96,818.294Zm-84.63,8.041a14.777,14.777,0,0,1-14.81-14.745v-190.8a14.81,14.81,0,0,1,29.62,0v190.8A14.777,14.777,0,0,1,1253.33,826.335Zm-84.63,0a14.777,14.777,0,0,1-14.81-14.745v-190.8a14.81,14.81,0,0,1,29.62,0v190.8A14.777,14.777,0,0,1,1168.7,826.335Zm-84.63-8.041a14.777,14.777,0,0,1-14.81-14.745v-190.8a14.81,14.81,0,0,1,29.62,0v190.8A14.777,14.777,0,0,1,1084.07,818.294Zm-84.623-19.032a14.778,14.778,0,0,1-14.811-14.745V593.711a14.812,14.812,0,0,1,29.624,0V784.517A14.778,14.778,0,0,1,999.447,799.262ZM1309.64,462.906a14.777,14.777,0,0,1-14.81-14.745V408.419c-24.5,10-59.15,13.32-83.81,13.32s-59.32-3.318-83.82-13.319v39.741a14.81,14.81,0,0,1-29.62,0V375.825c0-.046.02-0.09,0.02-0.137,0.29-35.99,71.37-45.607,113.42-45.607s113.12,9.617,113.42,45.607c0,0.047.01,0.091,0.01,0.137v72.336A14.777,14.777,0,0,1,1309.64,462.906Zm-98.62-103.335c-47.11,0-75.15,10.4-82.53,16.341,7.38,5.938,35.42,16.338,82.53,16.338s75.14-10.4,82.52-16.338C1286.16,369.97,1258.12,359.571,1211.02,359.571Z" transform="translate(-900 -330.094)"/>
</svg>

