<svg xmlns="http://www.w3.org/2000/svg" width="757.909" height="652.031" viewBox="0 0 757.909 652.031">
  <defs>
    <style>
      .cls-1 {
        fill: #ffe90e;
        fill-rule: evenodd;
      }
    </style>
  </defs>
  <path id="Fara.svg" class="cls-1" d="M1468.25,745.313H803.591a15.53,15.53,0,0,1-14.572-21L934.374,340.17a15.573,15.573,0,0,1,14.572-10.046h519.3c42.84,0,77.69,34.741,77.69,77.443v260.3C1545.94,710.574,1511.09,745.313,1468.25,745.313Zm46.54-337.746a46.515,46.515,0,0,0-46.54-46.395H959.717L826.11,714.264h574.32V530.028a15.575,15.575,0,0,1,31.15,0V714.264h36.67a46.514,46.514,0,0,0,46.54-46.392v-260.3ZM1218.56,672.261c-74.42,0-134.97-60.354-134.97-134.543s60.55-134.544,134.97-134.544,134.98,60.356,134.98,134.544S1292.99,672.261,1218.56,672.261Zm0-238.038c-57.25,0-103.82,46.428-103.82,103.495s46.57,103.5,103.82,103.5,103.83-46.428,103.83-103.495S1275.81,434.223,1218.56,434.223ZM980.421,672.261a66.437,66.437,0,1,1,66.649-66.435A66.619,66.619,0,0,1,980.421,672.261Zm0-101.824a35.388,35.388,0,1,0,35.5,35.389A35.487,35.487,0,0,0,980.421,570.437Zm-33.9,323.52h99.146a64.041,64.041,0,0,1,63.67-57.136h258.21a64.041,64.041,0,0,1,63.67,57.136h99.15a15.525,15.525,0,1,1,0,31.049h-99.15a64.041,64.041,0,0,1-63.67,57.136H1109.34a64.041,64.041,0,0,1-63.67-57.136H946.524A15.525,15.525,0,1,1,946.524,893.957ZM1076.47,918.32a32.856,32.856,0,0,0,32.87,32.774h258.21a32.865,32.865,0,0,0,32.88-32.774V900.643a32.864,32.864,0,0,0-32.88-32.773H1109.34a32.855,32.855,0,0,0-32.87,32.773V918.32Z" transform="translate(-788.031 -330.125)"/>
</svg>

