<svg xmlns="http://www.w3.org/2000/svg" width="657.997" height="651.907" viewBox="0 0 657.997 651.907">
  <defs>
    <style>
      .cls-1 {
        fill: #ffe90e;
        fill-rule: evenodd;
      }
    </style>
  </defs>
  <path id="Dv.svg" class="cls-1" d="M1495.06,474.4L1462,531.138a14.961,14.961,0,0,1-20.33,5.4l-18.88-10.8,4.92,58.98a14.588,14.588,0,0,1-1.94,8.586l-13.31,22.844c33.13,19.348,55.43,55.035,55.43,95.817,0,61.3-50.34,111.179-112.22,111.179h-23.38v8.254l21.29,21.661a14.691,14.691,0,0,1,4.21,10.286v23.711h38.7a14.809,14.809,0,0,1,14.88,14.742v65.517a14.809,14.809,0,0,1-14.88,14.741H939.617a14.81,14.81,0,0,1-14.879-14.741V901.794a14.81,14.81,0,0,1,14.879-14.742h38.7V863.341a14.681,14.681,0,0,1,4.218-10.286l21.289-21.661V823.14H980.433c-61.879,0-112.221-49.874-112.221-111.179,0-40.782,22.3-76.47,55.438-95.818L910.338,593.3a14.629,14.629,0,0,1-1.944-8.586l4.925-58.979-18.881,10.8a14.955,14.955,0,0,1-20.325-5.4L841.048,474.4a14.67,14.67,0,0,1,5.445-20.139l25.54-14.607,3.623-43.386a14.739,14.739,0,0,1,7.39-11.552l91.942-52.59a15,15,0,0,1,13.791-.563l39.741,18.583,25.54-14.61a14.948,14.948,0,0,1,20.32,5.4l33.07,56.739a14.6,14.6,0,0,1,1.48,11.188,14.747,14.747,0,0,1-6.93,8.951l-18.88,10.8,54.02,25.264a14.772,14.772,0,0,1,6.53,5.959l24.38,41.835,24.38-41.835a14.849,14.849,0,0,1,6.54-5.959l54.02-25.263-18.89-10.8a14.666,14.666,0,0,1-5.44-20.139l33.06-56.739a14.967,14.967,0,0,1,20.33-5.4l25.54,14.61,39.74-18.583a14.993,14.993,0,0,1,13.79.563l91.94,52.59a14.717,14.717,0,0,1,7.39,11.552l3.62,43.386,25.55,14.607A14.666,14.666,0,0,1,1495.06,474.4ZM1355.67,793.657c45.47,0,82.47-36.649,82.47-81.7a81.537,81.537,0,0,0-40.57-70.277l-39.95,68.561a13.889,13.889,0,0,1,.17,1.716v38.451a14.69,14.69,0,0,1-4.21,10.285l-21.29,21.664v11.3h23.38ZM954.5,916.535V952.57H1381.61V916.535H954.5ZM1306.74,766.084l21.3-21.665V726.7h-52.36c-7.28,52.412-52.75,92.921-107.63,92.921s-100.34-40.509-107.62-92.921h-52.36v17.716l21.29,21.665a14.657,14.657,0,0,1,4.22,10.285v61.017a14.657,14.657,0,0,1-4.22,10.285l-21.29,21.661v17.72h319.97v-17.72l-21.3-21.661a14.69,14.69,0,0,1-4.21-10.285V776.369A14.69,14.69,0,0,1,1306.74,766.084Zm-59.77-54.126c0-43.108-35.4-78.18-78.92-78.18s-78.91,35.072-78.91,78.18,35.4,78.183,78.91,78.183S1246.97,755.069,1246.97,711.958Zm-349,0c0,45.047,36.994,81.7,82.463,81.7h23.387v-11.3L982.531,760.7a14.672,14.672,0,0,1-4.218-10.285V711.961a14.287,14.287,0,0,1,.174-1.716l-39.954-68.561A81.546,81.546,0,0,0,897.97,711.961Zm158.08-343.519-19.4,11.1a15,15,0,0,1-13.79.563l-39.74-18.584-78.448,44.871-3.622,43.386a14.742,14.742,0,0,1-7.39,11.553l-19.4,11.1,18.186,31.2,181.8-103.984Zm159.83,110.125-34.94,59.955a14.948,14.948,0,0,1-25.77,0l-34.94-59.955-68.47-32.02L944.679,507.8l-6.244,74.753,66.825,114.67h55.17c7.27-52.415,52.75-92.926,107.62-92.926s100.35,40.511,107.63,92.926h55.17l66.82-114.67-6.24-74.753-107.08-61.251Zm226.57-17.239a14.721,14.721,0,0,1-7.39-11.553l-3.63-43.386-78.44-44.871L1313.25,380.1a15,15,0,0,1-13.79-.563l-19.4-11.1-18.19,31.2,181.79,103.984,18.19-31.2Zm-274.4,280.117a29.484,29.484,0,1,1,29.76-29.484A29.654,29.654,0,0,1,1168.05,741.445Z" transform="translate(-839.063 -330.156)"/>
</svg>

