<svg xmlns="http://www.w3.org/2000/svg" width="126" height="190" viewBox="0 0 126 190">
  <defs>
    <style>
      .cls-1 {
        fill-rule: evenodd;
      }
    </style>
  </defs>
  <path id="Award.svg" class="cls-1" d="M560.688,901.482V920.5H582.5a7.906,7.906,0,0,1,7.875,7.917v11.874a7.906,7.906,0,0,1,7.875,7.917V968H483.75V948.208a7.906,7.906,0,0,1,7.875-7.917V928.417A7.906,7.906,0,0,1,499.5,920.5h21.812V901.482A63.4,63.4,0,0,1,478,841.333C478,806.412,506.262,778,541,778s63,28.412,63,63.333A63.4,63.4,0,0,1,560.688,901.482ZM499.5,928.417v11.874H541v7.917H491.625v11.875h98.75V948.208h-41.5v-7.917H582.5V928.417H548.875V920.5h3.937V903.534a62.144,62.144,0,0,1-23.625,0V920.5H541v7.917H499.5Zm41.5-142.5a55.417,55.417,0,1,0,55.125,55.416A55.333,55.333,0,0,0,541,785.917Zm34.157,50.751-15.777,14.5,4.941,20.609a3.977,3.977,0,0,1-1.526,4.14,3.92,3.92,0,0,1-4.388.145L541.065,865.18l-17.346,10.887a3.917,3.917,0,0,1-4.387-.147,3.971,3.971,0,0,1-1.526-4.138l4.941-20.609-15.777-14.5a3.961,3.961,0,0,1,2.449-6.873l20.253-1.066,7.71-20.464a3.932,3.932,0,0,1,7.367,0l7.706,20.464,20.252,1.066A3.961,3.961,0,0,1,575.157,836.668Zm-25.682-.169A3.939,3.939,0,0,1,546,833.948l-4.934-13.1-4.937,13.1a3.94,3.94,0,0,1-3.476,2.551l-13.428.708,10.552,9.7a3.981,3.981,0,0,1,1.173,3.849l-3.23,13.465,11.262-7.068a3.919,3.919,0,0,1,4.168,0l11.259,7.068-3.23-13.465a3.981,3.981,0,0,1,1.173-3.849l10.551-9.7Z" transform="translate(-478 -778)"/>
</svg>

